# xmcd
#
# Track frame offsets: 
#        150
#        9995
#        19577
#        31426
#        41667
#        54714
#        63978
#        75327
#        85732
#        96142
#        106975
#        119956
#        127859
#        136599
#        147572
#        157856
#        168964
#        179279
#        190551
#        204593
#        214997
#        226675
#        237399
#        248431
#
# Disc length: 3470 seconds
#
# Revision: 0
# Processed by: cddbd v1.5.2PL0 Copyright (c) Steve Scherf et al.
# Submitted via: ExactAudioCopy v0.95b4
#
DISCID=320d8c18
DTITLE=Sons Of The Pioneers - Cool Water (Expanded)
DYEAR=1959
DGENRE=Western
TTITLE0=Cool Water (1959)
TTITLE1=Whoopie-Ti-Yi-Yo (1959)
TTITLE2=Wind (1959)
TTITLE3=Cowboy's Dream (1959)
TTITLE4=The Last Round-Up (1959)
TTITLE5=Ridin' Home (1959)
TTITLE6=Twilight On The Trail (1959)
TTITLE7=Red River Valley (1959)
TTITLE8=Wagon Wheels (1959)
TTITLE9=Riders In The Sky (1959)
TTITLE10=Blue Prairie (1959)
TTITLE11=Way Out There (1959)
TTITLE12=Empty Saddles (1959)
TTITLE13=Teardrops In My Heart (1959)
TTITLE14=Blue Shadows On The Trail (1959)
TTITLE15=Ridin' Down The Canyon (1959)
TTITLE16=The Timber Trail (1959)
TTITLE17=Tumbling Tumbleweeds (1959)
TTITLE18=Take Me Back To My Boots And Saddles (1960)
TTITLE19=Wanderers (1960)
TTITLE20=There's A Goldmine In The Sky (1960)
TTITLE21=When The Bloom Is On The Sage (1960)
TTITLE22=Ole Faithful (1962)
TTITLE23=The Cattle Call (1960)
EXTD=Cool Water (Expanded]\n© 2010 Concept Productions/Sony BMG Music 
EXTD=Entertainment\n\nCompilation Originally Released 2007\n\nCollecto
EXTD=rs' Choice Notes\nTitle: Cool Water (Expanded]\nArtist: Sons Of T
EXTD=he Pioneers \n\nThis 1959 album saw the Sons re-record some of th
EXTD=eir biggest hits backed by an RCA studio orchestra...sorta dude r
EXTD=anch cowboy music! Includes 'Cool Water - Whoopie Ti Yi Yo - Wind - 
EXTD=Cowboy's Dream - Last Round Up - Ridin' Home - Twilight on the Trail
EXTD=Red River Valley - Wagon Wheels - Riders in the Sky - Blue Prairie
EXTD=Way Out There - Empty Saddles - Teardrops in My Heart - Blue Shado
EXTD=ws on the Trail - Ridin Down the Canyon - Timber Trail, 'and 'Tumbl
EXTD=in' Tumbleweeds'.
EXTT0=
EXTT1=
EXTT2=
EXTT3=
EXTT4=
EXTT5=
EXTT6=
EXTT7=
EXTT8=
EXTT9=
EXTT10=
EXTT11=
EXTT12=
EXTT13=
EXTT14=
EXTT15=
EXTT16=
EXTT17=
EXTT18=
EXTT19=
EXTT20=
EXTT21=
EXTT22=
EXTT23=
PLAYORDER=
